G75*
G70*
%OFA0B0*%
%FSLAX24Y24*%
%IPPOS*%
%LPD*%
%AMOC8*
5,1,8,0,0,1.08239X$1,22.5*
%
%ADD10C,0.0600*%
%ADD11C,0.0520*%
%ADD12OC8,0.0520*%
%ADD13C,0.0160*%
%ADD14C,0.0396*%
D10*
X002851Y004944D02*
X002851Y005544D01*
X003851Y005544D02*
X003851Y004944D01*
X006601Y001794D02*
X006601Y001194D01*
X007601Y001194D02*
X007601Y001794D01*
X008601Y001794D02*
X008601Y001194D01*
X009601Y001194D02*
X009601Y001794D01*
X010601Y001794D02*
X010601Y001194D01*
X011601Y001194D02*
X011601Y001794D01*
X013601Y001794D02*
X013601Y001194D01*
X014601Y001194D02*
X014601Y001794D01*
X015601Y001794D02*
X015601Y001194D01*
X016601Y001194D02*
X016601Y001794D01*
X017601Y001794D02*
X017601Y001194D01*
X018601Y001194D02*
X018601Y001794D01*
X018301Y002994D02*
X018901Y002994D01*
X018901Y003994D02*
X018301Y003994D01*
X018301Y004994D02*
X018901Y004994D01*
X020801Y004994D02*
X021401Y004994D01*
X021401Y003994D02*
X020801Y003994D01*
X020801Y002994D02*
X021401Y002994D01*
X021401Y007494D02*
X020801Y007494D01*
X020801Y008494D02*
X021401Y008494D01*
X021401Y009494D02*
X020801Y009494D01*
X018901Y009494D02*
X018301Y009494D01*
X018301Y008494D02*
X018901Y008494D01*
X018901Y007494D02*
X018301Y007494D01*
X016401Y007494D02*
X015801Y007494D01*
X015801Y008494D02*
X016401Y008494D01*
X016401Y009494D02*
X015801Y009494D01*
X015801Y011994D02*
X016401Y011994D01*
X016401Y012994D02*
X015801Y012994D01*
X015801Y013994D02*
X016401Y013994D01*
X018301Y013994D02*
X018901Y013994D01*
X018901Y012994D02*
X018301Y012994D01*
X018301Y011994D02*
X018901Y011994D01*
X020801Y011994D02*
X021401Y011994D01*
X021401Y012994D02*
X020801Y012994D01*
X020801Y013994D02*
X021401Y013994D01*
X021401Y016494D02*
X020801Y016494D01*
X020801Y017494D02*
X021401Y017494D01*
X021401Y018494D02*
X020801Y018494D01*
X018901Y018494D02*
X018301Y018494D01*
X018301Y017494D02*
X018901Y017494D01*
X018901Y016494D02*
X018301Y016494D01*
X016401Y016494D02*
X015801Y016494D01*
X015801Y017494D02*
X016401Y017494D01*
X016401Y018494D02*
X015801Y018494D01*
X015601Y020194D02*
X015601Y020794D01*
X016601Y020794D02*
X016601Y020194D01*
X017601Y020194D02*
X017601Y020794D01*
X018601Y020794D02*
X018601Y020194D01*
X014601Y020194D02*
X014601Y020794D01*
X013601Y020794D02*
X013601Y020194D01*
X012601Y020194D02*
X012601Y020794D01*
X011601Y020794D02*
X011601Y020194D01*
X010101Y020194D02*
X010101Y020794D01*
X009101Y020794D02*
X009101Y020194D01*
X008101Y020194D02*
X008101Y020794D01*
X007101Y020794D02*
X007101Y020194D01*
X006101Y020194D02*
X006101Y020794D01*
X005101Y020794D02*
X005101Y020194D01*
X004101Y020194D02*
X004101Y020794D01*
X003101Y020794D02*
X003101Y020194D01*
X005301Y015994D02*
X005901Y015994D01*
X005901Y014994D02*
X005301Y014994D01*
X012051Y015744D02*
X012651Y015744D01*
X012651Y016744D02*
X012051Y016744D01*
X012051Y017744D02*
X012651Y017744D01*
X012651Y018744D02*
X012051Y018744D01*
X015801Y004994D02*
X016401Y004994D01*
X016401Y003994D02*
X015801Y003994D01*
X015801Y002994D02*
X016401Y002994D01*
D11*
X012601Y003734D02*
X012601Y004254D01*
X011601Y004254D02*
X011601Y003734D01*
X010601Y003734D02*
X010601Y004254D01*
X009601Y004254D02*
X009601Y003734D01*
X008601Y003734D02*
X008601Y004254D01*
X007601Y004254D02*
X007601Y003734D01*
X006601Y003734D02*
X006601Y004254D01*
X005601Y004254D02*
X005601Y003734D01*
X005601Y006734D02*
X005601Y007254D01*
X006601Y007254D02*
X006601Y006734D01*
X007601Y006734D02*
X007601Y007254D01*
X008601Y007254D02*
X008601Y006734D01*
X009601Y006734D02*
X009601Y007254D01*
X010601Y007254D02*
X010601Y006734D01*
X011601Y006734D02*
X011601Y007254D01*
X012601Y007254D02*
X012601Y006734D01*
X012601Y009234D02*
X012601Y009754D01*
X011601Y009754D02*
X011601Y009234D01*
X010601Y009234D02*
X010601Y009754D01*
X009601Y009754D02*
X009601Y009234D01*
X008601Y009234D02*
X008601Y009754D01*
X007601Y009754D02*
X007601Y009234D01*
X006601Y009234D02*
X006601Y009754D01*
X005601Y009754D02*
X005601Y009234D01*
X005601Y012234D02*
X005601Y012754D01*
X006601Y012754D02*
X006601Y012234D01*
X007601Y012234D02*
X007601Y012754D01*
X008601Y012754D02*
X008601Y012234D01*
X009601Y012234D02*
X009601Y012754D01*
X010601Y012754D02*
X010601Y012234D01*
X011601Y012234D02*
X011601Y012754D01*
X012601Y012754D02*
X012601Y012234D01*
D12*
X009101Y015994D03*
X008101Y015994D03*
X007101Y015994D03*
X007101Y018994D03*
X008101Y018994D03*
X009101Y018994D03*
X003601Y018994D03*
X002601Y018994D03*
X002601Y015994D03*
X003601Y015994D03*
D13*
X002351Y002494D02*
X004851Y002494D01*
X004351Y002994D02*
X003351Y003994D01*
X002851Y004494D01*
X002851Y005244D01*
X002851Y013494D01*
X003851Y013494D02*
X003851Y005244D01*
X004101Y003994D02*
X003351Y003994D01*
X004101Y003994D02*
X005601Y005494D01*
X005601Y006994D01*
X004601Y007994D01*
X004601Y010994D01*
X005601Y011994D01*
X005601Y012494D01*
X006601Y012494D01*
X007601Y012494D01*
X007601Y012244D01*
X008101Y011744D01*
X009351Y011744D01*
X009601Y011994D01*
X009601Y012494D01*
X009351Y011744D02*
X011351Y011744D01*
X011476Y011869D01*
X011601Y011744D01*
X014601Y011744D01*
X014851Y011994D01*
X014851Y012744D01*
X015101Y012994D01*
X016101Y012994D01*
X018601Y012994D01*
X021101Y012994D01*
X021101Y013994D02*
X021851Y013994D01*
X022351Y013494D01*
X022351Y009994D01*
X021851Y009494D01*
X022351Y008994D01*
X022351Y005244D01*
X022101Y004994D01*
X018601Y004994D01*
X016101Y004994D01*
X016101Y003994D02*
X015101Y003994D01*
X014851Y004244D01*
X014851Y008244D01*
X015101Y008494D01*
X016101Y008494D01*
X018601Y008494D01*
X021101Y008494D01*
X021101Y009494D02*
X021601Y009494D01*
X021851Y009494D01*
X021101Y009494D02*
X018601Y009494D01*
X016101Y009494D01*
X015101Y008494D02*
X014851Y008744D01*
X014851Y011994D01*
X015101Y012994D02*
X014851Y013244D01*
X014851Y016994D01*
X014851Y017244D01*
X015101Y017494D01*
X016101Y017494D01*
X018601Y017494D01*
X021101Y017494D01*
X021101Y018494D02*
X022101Y018494D01*
X022351Y018244D01*
X022351Y014494D01*
X021851Y013994D01*
X021101Y013994D02*
X018601Y013994D01*
X016101Y013994D01*
X015851Y013994D01*
X014351Y015244D02*
X014101Y014994D01*
X007351Y014994D01*
X006351Y015994D01*
X005601Y015994D01*
X004601Y015994D01*
X004351Y015744D01*
X004351Y014994D01*
X003851Y014494D01*
X003851Y013494D01*
X002101Y014994D02*
X002101Y002744D01*
X002351Y002494D01*
X004351Y002994D02*
X009101Y002994D01*
X009601Y003244D02*
X009851Y002994D01*
X011601Y002994D01*
X011851Y002744D01*
X015101Y002744D01*
X015351Y002994D01*
X016101Y002994D01*
X015101Y003494D02*
X017101Y003494D01*
X017601Y002994D01*
X018601Y002994D01*
X018601Y003994D02*
X021101Y003994D01*
X018601Y003994D02*
X016101Y003994D01*
X015101Y003494D02*
X014601Y002994D01*
X012101Y002994D01*
X011851Y003244D01*
X010851Y003244D01*
X010601Y003494D01*
X010601Y003994D01*
X009601Y003994D02*
X009601Y003244D01*
X008851Y002494D02*
X008601Y002244D01*
X008601Y001494D01*
X007601Y001494D01*
X008851Y002494D02*
X010601Y002494D01*
X011601Y003994D02*
X012351Y003244D01*
X014351Y003244D01*
X014601Y003494D01*
X014601Y003744D01*
X013101Y005244D02*
X012851Y005244D01*
X012601Y004994D01*
X012601Y003994D01*
X013101Y005244D02*
X013601Y005744D01*
X013601Y008994D01*
X013101Y009494D01*
X012601Y009494D01*
X011851Y008244D02*
X009101Y008244D01*
X008601Y007744D01*
X008601Y006994D01*
X009101Y006244D02*
X007851Y006244D01*
X007601Y006494D01*
X007601Y006994D01*
X006601Y006994D01*
X005601Y006994D01*
X008601Y004744D02*
X008851Y004994D01*
X009351Y004994D01*
X010101Y005744D01*
X011851Y005744D01*
X011351Y006244D02*
X009351Y006244D01*
X009601Y006494D01*
X009601Y006994D01*
X009351Y006244D02*
X009101Y006244D01*
X008601Y004744D02*
X008601Y003994D01*
X011351Y006244D02*
X011601Y006494D01*
X011601Y006994D01*
X010601Y009494D02*
X010601Y010494D01*
X010851Y010744D01*
X011351Y010744D01*
X011351Y011244D02*
X010101Y011244D01*
X009601Y010744D01*
X009601Y009494D01*
X011476Y011869D02*
X011601Y011994D01*
X011601Y012494D01*
X013351Y013494D02*
X008851Y013494D01*
X008601Y013244D01*
X008601Y012494D01*
X009351Y015744D02*
X009101Y015994D01*
X009351Y015744D02*
X012351Y015744D01*
X011601Y017494D02*
X008601Y017494D01*
X008101Y016994D01*
X008101Y015994D01*
X007101Y015994D02*
X007101Y017494D01*
X007601Y017994D01*
X011351Y017994D01*
X012101Y018744D01*
X012351Y018744D01*
X012351Y017744D02*
X011851Y017744D01*
X011601Y017494D01*
X014351Y017994D02*
X014351Y015244D01*
X014351Y017994D02*
X014851Y018494D01*
X016101Y018494D01*
X018601Y018494D01*
X021101Y018494D01*
X002601Y015994D02*
X002601Y015494D01*
X002101Y014994D01*
D14*
X002851Y013494D03*
X003851Y013494D03*
X006351Y013744D03*
X007101Y013744D03*
X008101Y013744D03*
X011351Y011244D03*
X011351Y010744D03*
X011851Y008244D03*
X011851Y005744D03*
X014601Y003744D03*
X010601Y002494D03*
X009101Y002994D03*
X004851Y002494D03*
X013351Y013494D03*
X014851Y016994D03*
M02*
