%
M48
M72
T01C0.0236
T02C0.0320
T03C0.0400
T04C0.1260
%
T01
X4851Y2494
X9101Y2994
X10601Y2494
X11851Y5744
X11851Y8244
X11351Y10744
X11351Y11244
X13351Y13494
X14851Y16994
X8101Y13744
X7101Y13744
X6351Y13744
X3851Y13494
X2851Y13494
X14601Y3744
T02
X12601Y3994
X11601Y3994
X10601Y3994
X9601Y3994
X8601Y3994
X7601Y3994
X6601Y3994
X5601Y3994
X5601Y6994
X6601Y6994
X7601Y6994
X8601Y6994
X9601Y6994
X10601Y6994
X11601Y6994
X12601Y6994
X12601Y9494
X11601Y9494
X10601Y9494
X9601Y9494
X8601Y9494
X7601Y9494
X6601Y9494
X5601Y9494
X5601Y12494
X6601Y12494
X7601Y12494
X8601Y12494
X9601Y12494
X10601Y12494
X11601Y12494
X12601Y12494
X9101Y15994
X8101Y15994
X7101Y15994
X7101Y18994
X8101Y18994
X9101Y18994
X3601Y18994
X2601Y18994
X2601Y15994
X3601Y15994
T03
X5601Y15994
X5601Y14994
X6101Y20494
X7101Y20494
X8101Y20494
X9101Y20494
X10101Y20494
X11601Y20494
X12601Y20494
X13601Y20494
X14601Y20494
X15601Y20494
X16601Y20494
X17601Y20494
X18601Y20494
X18601Y18494
X18601Y17494
X18601Y16494
X21101Y16494
X21101Y17494
X21101Y18494
X21101Y13994
X21101Y12994
X21101Y11994
X21101Y9494
X21101Y8494
X21101Y7494
X18601Y7494
X18601Y8494
X18601Y9494
X18601Y11994
X18601Y12994
X18601Y13994
X16101Y13994
X16101Y12994
X16101Y11994
X16101Y9494
X16101Y8494
X16101Y7494
X16101Y4994
X16101Y3994
X16101Y2994
X16601Y1494
X15601Y1494
X14601Y1494
X13601Y1494
X11601Y1494
X10601Y1494
X9601Y1494
X8601Y1494
X7601Y1494
X6601Y1494
X3851Y5244
X2851Y5244
X12351Y15744
X12351Y16744
X12351Y17744
X12351Y18744
X16101Y18494
X16101Y17494
X16101Y16494
X5101Y20494
X4101Y20494
X3101Y20494
X18601Y4994
X18601Y3994
X18601Y2994
X18601Y1494
X17601Y1494
X21101Y2994
X21101Y3994
X21101Y4994
T04
X1101Y1494
X1101Y20494
X21851Y20494
X21851Y1494
M30
