%
M48
M72
T01C0.0236
T02C0.0320
T03C0.0400
T04C0.0440
T05C0.1260
%
T01
X12601Y2494
X17101Y3994
X18101Y3994
X22601Y7494
X30601Y11494
T02
X20601Y9994
X19601Y9994
X18601Y9994
X17601Y9994
X16601Y9994
X15601Y9994
X14601Y9994
X13601Y9994
X13601Y6994
X14601Y6994
X15601Y6994
X16601Y6994
X17601Y6994
X18601Y6994
X19601Y6994
X20601Y6994
X20601Y14494
X19601Y14494
X18601Y14494
X17601Y14494
X16601Y14494
X15601Y14494
X14601Y14494
X13601Y14494
X9601Y15494
X8101Y15494
X6601Y15494
X3101Y15494
X3101Y18494
X6601Y18494
X8101Y18494
X9601Y18494
X13601Y17494
X14601Y17494
X15601Y17494
X16601Y17494
X17601Y17494
X18601Y17494
X19601Y17494
X20601Y17494
X10101Y3994
X9101Y3994
X7101Y3994
X6101Y3994
T03
X6601Y1494
X7601Y1494
X8601Y1494
X9601Y1494
X10601Y1494
X11601Y1494
X13601Y1494
X14601Y1494
X15601Y1494
X16601Y1494
X17601Y1494
X18601Y1494
X24601Y1494
X24601Y2494
X24601Y3494
X27101Y3494
X27101Y2494
X27101Y1494
X29601Y1494
X29601Y2494
X29601Y3494
X29601Y6994
X29601Y7994
X29601Y8994
X27101Y8994
X27101Y7994
X27101Y6994
X24601Y6994
X24601Y7994
X24601Y8994
X24601Y12994
X24601Y13994
X24601Y14994
X27101Y14994
X27101Y13994
X27101Y12994
X29601Y12994
X29601Y13994
X29601Y14994
X29601Y18494
X29601Y19494
X29601Y20494
X27101Y20494
X27101Y19494
X27101Y18494
X24601Y18494
X24601Y19494
X24601Y20494
X18601Y20494
X17601Y20494
X16601Y20494
X15601Y20494
X14601Y20494
X13601Y20494
X12601Y20494
X11601Y20494
X10101Y20494
X9101Y20494
X8101Y20494
X7101Y20494
X6101Y20494
X5101Y20494
X4101Y20494
X3101Y20494
X6601Y13994
X7601Y13994
X8601Y13994
X9601Y13994
X3601Y10494
X3601Y9494
X7101Y7994
X8101Y7994
X9101Y7994
T04
X3601Y6994
X3601Y5494
X3601Y3994
T05
X1101Y1494
X19601Y3494
X1101Y20494
M30
