G75*
G70*
%OFA0B0*%
%FSLAX24Y24*%
%IPPOS*%
%LPD*%
%AMOC8*
5,1,8,0,0,1.08239X$1,22.5*
%
%ADD10C,0.0000*%
D10*
X000101Y000494D02*
X000101Y021990D01*
X031471Y021990D01*
X031471Y000494D01*
X000101Y000494D01*
X000471Y001494D02*
X000473Y001544D01*
X000479Y001594D01*
X000489Y001643D01*
X000503Y001691D01*
X000520Y001738D01*
X000541Y001783D01*
X000566Y001827D01*
X000594Y001868D01*
X000626Y001907D01*
X000660Y001944D01*
X000697Y001978D01*
X000737Y002008D01*
X000779Y002035D01*
X000823Y002059D01*
X000869Y002080D01*
X000916Y002096D01*
X000964Y002109D01*
X001014Y002118D01*
X001063Y002123D01*
X001114Y002124D01*
X001164Y002121D01*
X001213Y002114D01*
X001262Y002103D01*
X001310Y002088D01*
X001356Y002070D01*
X001401Y002048D01*
X001444Y002022D01*
X001485Y001993D01*
X001524Y001961D01*
X001560Y001926D01*
X001592Y001888D01*
X001622Y001848D01*
X001649Y001805D01*
X001672Y001761D01*
X001691Y001715D01*
X001707Y001667D01*
X001719Y001618D01*
X001727Y001569D01*
X001731Y001519D01*
X001731Y001469D01*
X001727Y001419D01*
X001719Y001370D01*
X001707Y001321D01*
X001691Y001273D01*
X001672Y001227D01*
X001649Y001183D01*
X001622Y001140D01*
X001592Y001100D01*
X001560Y001062D01*
X001524Y001027D01*
X001485Y000995D01*
X001444Y000966D01*
X001401Y000940D01*
X001356Y000918D01*
X001310Y000900D01*
X001262Y000885D01*
X001213Y000874D01*
X001164Y000867D01*
X001114Y000864D01*
X001063Y000865D01*
X001014Y000870D01*
X000964Y000879D01*
X000916Y000892D01*
X000869Y000908D01*
X000823Y000929D01*
X000779Y000953D01*
X000737Y000980D01*
X000697Y001010D01*
X000660Y001044D01*
X000626Y001081D01*
X000594Y001120D01*
X000566Y001161D01*
X000541Y001205D01*
X000520Y001250D01*
X000503Y001297D01*
X000489Y001345D01*
X000479Y001394D01*
X000473Y001444D01*
X000471Y001494D01*
X018971Y003494D02*
X018973Y003544D01*
X018979Y003594D01*
X018989Y003643D01*
X019003Y003691D01*
X019020Y003738D01*
X019041Y003783D01*
X019066Y003827D01*
X019094Y003868D01*
X019126Y003907D01*
X019160Y003944D01*
X019197Y003978D01*
X019237Y004008D01*
X019279Y004035D01*
X019323Y004059D01*
X019369Y004080D01*
X019416Y004096D01*
X019464Y004109D01*
X019514Y004118D01*
X019563Y004123D01*
X019614Y004124D01*
X019664Y004121D01*
X019713Y004114D01*
X019762Y004103D01*
X019810Y004088D01*
X019856Y004070D01*
X019901Y004048D01*
X019944Y004022D01*
X019985Y003993D01*
X020024Y003961D01*
X020060Y003926D01*
X020092Y003888D01*
X020122Y003848D01*
X020149Y003805D01*
X020172Y003761D01*
X020191Y003715D01*
X020207Y003667D01*
X020219Y003618D01*
X020227Y003569D01*
X020231Y003519D01*
X020231Y003469D01*
X020227Y003419D01*
X020219Y003370D01*
X020207Y003321D01*
X020191Y003273D01*
X020172Y003227D01*
X020149Y003183D01*
X020122Y003140D01*
X020092Y003100D01*
X020060Y003062D01*
X020024Y003027D01*
X019985Y002995D01*
X019944Y002966D01*
X019901Y002940D01*
X019856Y002918D01*
X019810Y002900D01*
X019762Y002885D01*
X019713Y002874D01*
X019664Y002867D01*
X019614Y002864D01*
X019563Y002865D01*
X019514Y002870D01*
X019464Y002879D01*
X019416Y002892D01*
X019369Y002908D01*
X019323Y002929D01*
X019279Y002953D01*
X019237Y002980D01*
X019197Y003010D01*
X019160Y003044D01*
X019126Y003081D01*
X019094Y003120D01*
X019066Y003161D01*
X019041Y003205D01*
X019020Y003250D01*
X019003Y003297D01*
X018989Y003345D01*
X018979Y003394D01*
X018973Y003444D01*
X018971Y003494D01*
X000471Y020494D02*
X000473Y020544D01*
X000479Y020594D01*
X000489Y020643D01*
X000503Y020691D01*
X000520Y020738D01*
X000541Y020783D01*
X000566Y020827D01*
X000594Y020868D01*
X000626Y020907D01*
X000660Y020944D01*
X000697Y020978D01*
X000737Y021008D01*
X000779Y021035D01*
X000823Y021059D01*
X000869Y021080D01*
X000916Y021096D01*
X000964Y021109D01*
X001014Y021118D01*
X001063Y021123D01*
X001114Y021124D01*
X001164Y021121D01*
X001213Y021114D01*
X001262Y021103D01*
X001310Y021088D01*
X001356Y021070D01*
X001401Y021048D01*
X001444Y021022D01*
X001485Y020993D01*
X001524Y020961D01*
X001560Y020926D01*
X001592Y020888D01*
X001622Y020848D01*
X001649Y020805D01*
X001672Y020761D01*
X001691Y020715D01*
X001707Y020667D01*
X001719Y020618D01*
X001727Y020569D01*
X001731Y020519D01*
X001731Y020469D01*
X001727Y020419D01*
X001719Y020370D01*
X001707Y020321D01*
X001691Y020273D01*
X001672Y020227D01*
X001649Y020183D01*
X001622Y020140D01*
X001592Y020100D01*
X001560Y020062D01*
X001524Y020027D01*
X001485Y019995D01*
X001444Y019966D01*
X001401Y019940D01*
X001356Y019918D01*
X001310Y019900D01*
X001262Y019885D01*
X001213Y019874D01*
X001164Y019867D01*
X001114Y019864D01*
X001063Y019865D01*
X001014Y019870D01*
X000964Y019879D01*
X000916Y019892D01*
X000869Y019908D01*
X000823Y019929D01*
X000779Y019953D01*
X000737Y019980D01*
X000697Y020010D01*
X000660Y020044D01*
X000626Y020081D01*
X000594Y020120D01*
X000566Y020161D01*
X000541Y020205D01*
X000520Y020250D01*
X000503Y020297D01*
X000489Y020345D01*
X000479Y020394D01*
X000473Y020444D01*
X000471Y020494D01*
M02*
