G75*
G70*
%OFA0B0*%
%FSLAX24Y24*%
%IPPOS*%
%LPD*%
%AMOC8*
5,1,8,0,0,1.08239X$1,22.5*
%
%ADD10C,0.0000*%
D10*
X000101Y000494D02*
X000101Y021740D01*
X022971Y021740D01*
X022971Y000494D01*
X000101Y000494D01*
X000471Y001494D02*
X000473Y001544D01*
X000479Y001594D01*
X000489Y001643D01*
X000503Y001691D01*
X000520Y001738D01*
X000541Y001783D01*
X000566Y001827D01*
X000594Y001868D01*
X000626Y001907D01*
X000660Y001944D01*
X000697Y001978D01*
X000737Y002008D01*
X000779Y002035D01*
X000823Y002059D01*
X000869Y002080D01*
X000916Y002096D01*
X000964Y002109D01*
X001014Y002118D01*
X001063Y002123D01*
X001114Y002124D01*
X001164Y002121D01*
X001213Y002114D01*
X001262Y002103D01*
X001310Y002088D01*
X001356Y002070D01*
X001401Y002048D01*
X001444Y002022D01*
X001485Y001993D01*
X001524Y001961D01*
X001560Y001926D01*
X001592Y001888D01*
X001622Y001848D01*
X001649Y001805D01*
X001672Y001761D01*
X001691Y001715D01*
X001707Y001667D01*
X001719Y001618D01*
X001727Y001569D01*
X001731Y001519D01*
X001731Y001469D01*
X001727Y001419D01*
X001719Y001370D01*
X001707Y001321D01*
X001691Y001273D01*
X001672Y001227D01*
X001649Y001183D01*
X001622Y001140D01*
X001592Y001100D01*
X001560Y001062D01*
X001524Y001027D01*
X001485Y000995D01*
X001444Y000966D01*
X001401Y000940D01*
X001356Y000918D01*
X001310Y000900D01*
X001262Y000885D01*
X001213Y000874D01*
X001164Y000867D01*
X001114Y000864D01*
X001063Y000865D01*
X001014Y000870D01*
X000964Y000879D01*
X000916Y000892D01*
X000869Y000908D01*
X000823Y000929D01*
X000779Y000953D01*
X000737Y000980D01*
X000697Y001010D01*
X000660Y001044D01*
X000626Y001081D01*
X000594Y001120D01*
X000566Y001161D01*
X000541Y001205D01*
X000520Y001250D01*
X000503Y001297D01*
X000489Y001345D01*
X000479Y001394D01*
X000473Y001444D01*
X000471Y001494D01*
X000471Y020494D02*
X000473Y020544D01*
X000479Y020594D01*
X000489Y020643D01*
X000503Y020691D01*
X000520Y020738D01*
X000541Y020783D01*
X000566Y020827D01*
X000594Y020868D01*
X000626Y020907D01*
X000660Y020944D01*
X000697Y020978D01*
X000737Y021008D01*
X000779Y021035D01*
X000823Y021059D01*
X000869Y021080D01*
X000916Y021096D01*
X000964Y021109D01*
X001014Y021118D01*
X001063Y021123D01*
X001114Y021124D01*
X001164Y021121D01*
X001213Y021114D01*
X001262Y021103D01*
X001310Y021088D01*
X001356Y021070D01*
X001401Y021048D01*
X001444Y021022D01*
X001485Y020993D01*
X001524Y020961D01*
X001560Y020926D01*
X001592Y020888D01*
X001622Y020848D01*
X001649Y020805D01*
X001672Y020761D01*
X001691Y020715D01*
X001707Y020667D01*
X001719Y020618D01*
X001727Y020569D01*
X001731Y020519D01*
X001731Y020469D01*
X001727Y020419D01*
X001719Y020370D01*
X001707Y020321D01*
X001691Y020273D01*
X001672Y020227D01*
X001649Y020183D01*
X001622Y020140D01*
X001592Y020100D01*
X001560Y020062D01*
X001524Y020027D01*
X001485Y019995D01*
X001444Y019966D01*
X001401Y019940D01*
X001356Y019918D01*
X001310Y019900D01*
X001262Y019885D01*
X001213Y019874D01*
X001164Y019867D01*
X001114Y019864D01*
X001063Y019865D01*
X001014Y019870D01*
X000964Y019879D01*
X000916Y019892D01*
X000869Y019908D01*
X000823Y019929D01*
X000779Y019953D01*
X000737Y019980D01*
X000697Y020010D01*
X000660Y020044D01*
X000626Y020081D01*
X000594Y020120D01*
X000566Y020161D01*
X000541Y020205D01*
X000520Y020250D01*
X000503Y020297D01*
X000489Y020345D01*
X000479Y020394D01*
X000473Y020444D01*
X000471Y020494D01*
X021221Y020494D02*
X021223Y020544D01*
X021229Y020594D01*
X021239Y020643D01*
X021253Y020691D01*
X021270Y020738D01*
X021291Y020783D01*
X021316Y020827D01*
X021344Y020868D01*
X021376Y020907D01*
X021410Y020944D01*
X021447Y020978D01*
X021487Y021008D01*
X021529Y021035D01*
X021573Y021059D01*
X021619Y021080D01*
X021666Y021096D01*
X021714Y021109D01*
X021764Y021118D01*
X021813Y021123D01*
X021864Y021124D01*
X021914Y021121D01*
X021963Y021114D01*
X022012Y021103D01*
X022060Y021088D01*
X022106Y021070D01*
X022151Y021048D01*
X022194Y021022D01*
X022235Y020993D01*
X022274Y020961D01*
X022310Y020926D01*
X022342Y020888D01*
X022372Y020848D01*
X022399Y020805D01*
X022422Y020761D01*
X022441Y020715D01*
X022457Y020667D01*
X022469Y020618D01*
X022477Y020569D01*
X022481Y020519D01*
X022481Y020469D01*
X022477Y020419D01*
X022469Y020370D01*
X022457Y020321D01*
X022441Y020273D01*
X022422Y020227D01*
X022399Y020183D01*
X022372Y020140D01*
X022342Y020100D01*
X022310Y020062D01*
X022274Y020027D01*
X022235Y019995D01*
X022194Y019966D01*
X022151Y019940D01*
X022106Y019918D01*
X022060Y019900D01*
X022012Y019885D01*
X021963Y019874D01*
X021914Y019867D01*
X021864Y019864D01*
X021813Y019865D01*
X021764Y019870D01*
X021714Y019879D01*
X021666Y019892D01*
X021619Y019908D01*
X021573Y019929D01*
X021529Y019953D01*
X021487Y019980D01*
X021447Y020010D01*
X021410Y020044D01*
X021376Y020081D01*
X021344Y020120D01*
X021316Y020161D01*
X021291Y020205D01*
X021270Y020250D01*
X021253Y020297D01*
X021239Y020345D01*
X021229Y020394D01*
X021223Y020444D01*
X021221Y020494D01*
X021221Y001494D02*
X021223Y001544D01*
X021229Y001594D01*
X021239Y001643D01*
X021253Y001691D01*
X021270Y001738D01*
X021291Y001783D01*
X021316Y001827D01*
X021344Y001868D01*
X021376Y001907D01*
X021410Y001944D01*
X021447Y001978D01*
X021487Y002008D01*
X021529Y002035D01*
X021573Y002059D01*
X021619Y002080D01*
X021666Y002096D01*
X021714Y002109D01*
X021764Y002118D01*
X021813Y002123D01*
X021864Y002124D01*
X021914Y002121D01*
X021963Y002114D01*
X022012Y002103D01*
X022060Y002088D01*
X022106Y002070D01*
X022151Y002048D01*
X022194Y002022D01*
X022235Y001993D01*
X022274Y001961D01*
X022310Y001926D01*
X022342Y001888D01*
X022372Y001848D01*
X022399Y001805D01*
X022422Y001761D01*
X022441Y001715D01*
X022457Y001667D01*
X022469Y001618D01*
X022477Y001569D01*
X022481Y001519D01*
X022481Y001469D01*
X022477Y001419D01*
X022469Y001370D01*
X022457Y001321D01*
X022441Y001273D01*
X022422Y001227D01*
X022399Y001183D01*
X022372Y001140D01*
X022342Y001100D01*
X022310Y001062D01*
X022274Y001027D01*
X022235Y000995D01*
X022194Y000966D01*
X022151Y000940D01*
X022106Y000918D01*
X022060Y000900D01*
X022012Y000885D01*
X021963Y000874D01*
X021914Y000867D01*
X021864Y000864D01*
X021813Y000865D01*
X021764Y000870D01*
X021714Y000879D01*
X021666Y000892D01*
X021619Y000908D01*
X021573Y000929D01*
X021529Y000953D01*
X021487Y000980D01*
X021447Y001010D01*
X021410Y001044D01*
X021376Y001081D01*
X021344Y001120D01*
X021316Y001161D01*
X021291Y001205D01*
X021270Y001250D01*
X021253Y001297D01*
X021239Y001345D01*
X021229Y001394D01*
X021223Y001444D01*
X021221Y001494D01*
M02*
