G75*
G70*
%OFA0B0*%
%FSLAX24Y24*%
%IPPOS*%
%LPD*%
%AMOC8*
5,1,8,0,0,1.08239X$1,22.5*
%
%ADD10C,0.0600*%
%ADD11C,0.0520*%
%ADD12OC8,0.0520*%
%ADD13C,0.0660*%
%ADD14C,0.0160*%
%ADD15C,0.0396*%
D10*
X006601Y001194D02*
X006601Y001794D01*
X007601Y001794D02*
X007601Y001194D01*
X008601Y001194D02*
X008601Y001794D01*
X009601Y001794D02*
X009601Y001194D01*
X010601Y001194D02*
X010601Y001794D01*
X011601Y001794D02*
X011601Y001194D01*
X013601Y001194D02*
X013601Y001794D01*
X014601Y001794D02*
X014601Y001194D01*
X015601Y001194D02*
X015601Y001794D01*
X016601Y001794D02*
X016601Y001194D01*
X017601Y001194D02*
X017601Y001794D01*
X018601Y001794D02*
X018601Y001194D01*
X024301Y001494D02*
X024901Y001494D01*
X024901Y002494D02*
X024301Y002494D01*
X024301Y003494D02*
X024901Y003494D01*
X026801Y003494D02*
X027401Y003494D01*
X027401Y002494D02*
X026801Y002494D01*
X026801Y001494D02*
X027401Y001494D01*
X029301Y001494D02*
X029901Y001494D01*
X029901Y002494D02*
X029301Y002494D01*
X029301Y003494D02*
X029901Y003494D01*
X029901Y006994D02*
X029301Y006994D01*
X029301Y007994D02*
X029901Y007994D01*
X029901Y008994D02*
X029301Y008994D01*
X027401Y008994D02*
X026801Y008994D01*
X026801Y007994D02*
X027401Y007994D01*
X027401Y006994D02*
X026801Y006994D01*
X024901Y006994D02*
X024301Y006994D01*
X024301Y007994D02*
X024901Y007994D01*
X024901Y008994D02*
X024301Y008994D01*
X024301Y012994D02*
X024901Y012994D01*
X024901Y013994D02*
X024301Y013994D01*
X024301Y014994D02*
X024901Y014994D01*
X026801Y014994D02*
X027401Y014994D01*
X027401Y013994D02*
X026801Y013994D01*
X026801Y012994D02*
X027401Y012994D01*
X029301Y012994D02*
X029901Y012994D01*
X029901Y013994D02*
X029301Y013994D01*
X029301Y014994D02*
X029901Y014994D01*
X029901Y018494D02*
X029301Y018494D01*
X029301Y019494D02*
X029901Y019494D01*
X029901Y020494D02*
X029301Y020494D01*
X027401Y020494D02*
X026801Y020494D01*
X026801Y019494D02*
X027401Y019494D01*
X027401Y018494D02*
X026801Y018494D01*
X024901Y018494D02*
X024301Y018494D01*
X024301Y019494D02*
X024901Y019494D01*
X024901Y020494D02*
X024301Y020494D01*
X018601Y020794D02*
X018601Y020194D01*
X017601Y020194D02*
X017601Y020794D01*
X016601Y020794D02*
X016601Y020194D01*
X015601Y020194D02*
X015601Y020794D01*
X014601Y020794D02*
X014601Y020194D01*
X013601Y020194D02*
X013601Y020794D01*
X012601Y020794D02*
X012601Y020194D01*
X011601Y020194D02*
X011601Y020794D01*
X010101Y020794D02*
X010101Y020194D01*
X009101Y020194D02*
X009101Y020794D01*
X008101Y020794D02*
X008101Y020194D01*
X007101Y020194D02*
X007101Y020794D01*
X006101Y020794D02*
X006101Y020194D01*
X005101Y020194D02*
X005101Y020794D01*
X004101Y020794D02*
X004101Y020194D01*
X003101Y020194D02*
X003101Y020794D01*
X006601Y014294D02*
X006601Y013694D01*
X007601Y013694D02*
X007601Y014294D01*
X008601Y014294D02*
X008601Y013694D01*
X009601Y013694D02*
X009601Y014294D01*
X003901Y010494D02*
X003301Y010494D01*
X003301Y009494D02*
X003901Y009494D01*
X007101Y008294D02*
X007101Y007694D01*
X008101Y007694D02*
X008101Y008294D01*
X009101Y008294D02*
X009101Y007694D01*
D11*
X013601Y007254D02*
X013601Y006734D01*
X014601Y006734D02*
X014601Y007254D01*
X015601Y007254D02*
X015601Y006734D01*
X016601Y006734D02*
X016601Y007254D01*
X017601Y007254D02*
X017601Y006734D01*
X018601Y006734D02*
X018601Y007254D01*
X019601Y007254D02*
X019601Y006734D01*
X020601Y006734D02*
X020601Y007254D01*
X020601Y009734D02*
X020601Y010254D01*
X019601Y010254D02*
X019601Y009734D01*
X018601Y009734D02*
X018601Y010254D01*
X017601Y010254D02*
X017601Y009734D01*
X016601Y009734D02*
X016601Y010254D01*
X015601Y010254D02*
X015601Y009734D01*
X014601Y009734D02*
X014601Y010254D01*
X013601Y010254D02*
X013601Y009734D01*
X013601Y014234D02*
X013601Y014754D01*
X014601Y014754D02*
X014601Y014234D01*
X015601Y014234D02*
X015601Y014754D01*
X016601Y014754D02*
X016601Y014234D01*
X017601Y014234D02*
X017601Y014754D01*
X018601Y014754D02*
X018601Y014234D01*
X019601Y014234D02*
X019601Y014754D01*
X020601Y014754D02*
X020601Y014234D01*
X020601Y017234D02*
X020601Y017754D01*
X019601Y017754D02*
X019601Y017234D01*
X018601Y017234D02*
X018601Y017754D01*
X017601Y017754D02*
X017601Y017234D01*
X016601Y017234D02*
X016601Y017754D01*
X015601Y017754D02*
X015601Y017234D01*
X014601Y017234D02*
X014601Y017754D01*
X013601Y017754D02*
X013601Y017234D01*
D12*
X009601Y018494D03*
X008101Y018494D03*
X006601Y018494D03*
X003101Y018494D03*
X003101Y015494D03*
X006601Y015494D03*
X008101Y015494D03*
X009601Y015494D03*
X010101Y003994D03*
X009101Y003994D03*
X007101Y003994D03*
X006101Y003994D03*
D13*
X003931Y003994D02*
X003271Y003994D01*
X003271Y005494D02*
X003931Y005494D01*
X003931Y006994D02*
X003271Y006994D01*
D14*
X008601Y001994D02*
X009101Y002494D01*
X012601Y002494D01*
X008601Y001994D02*
X008601Y001494D01*
X013601Y006994D02*
X013601Y007994D01*
X013101Y008494D01*
X013101Y010994D01*
X013601Y011494D01*
X013601Y014494D01*
X013601Y015494D01*
X013101Y015994D01*
X013101Y018494D01*
X011601Y019994D01*
X011601Y020494D01*
X012601Y020494D02*
X012601Y019994D01*
X014101Y018494D01*
X014101Y015994D01*
X014601Y015494D01*
X014601Y014494D01*
X014601Y011494D01*
X014101Y010994D01*
X014101Y008494D01*
X014601Y007994D01*
X014601Y006994D01*
X015601Y006994D02*
X015601Y007994D01*
X015101Y008494D01*
X015101Y010994D01*
X015601Y011494D01*
X015601Y014494D01*
X015601Y015494D01*
X015101Y015994D01*
X015101Y018494D01*
X013601Y019994D01*
X013601Y020494D01*
X016601Y018494D02*
X016601Y017494D01*
X016601Y018494D02*
X017101Y018994D01*
X020101Y018994D01*
X021101Y019994D01*
X028101Y019994D01*
X029601Y018494D01*
X027101Y018494D02*
X025601Y018494D01*
X025101Y018994D01*
X021101Y018994D01*
X020601Y018494D01*
X020601Y017494D01*
X020101Y015494D02*
X019601Y014994D01*
X019601Y014494D01*
X018601Y014494D02*
X018601Y013994D01*
X019101Y013494D01*
X025601Y013494D01*
X026101Y012994D01*
X027101Y012994D01*
X028101Y014494D02*
X023101Y014494D01*
X022101Y015494D01*
X020101Y015494D01*
X017601Y015994D02*
X024101Y015994D01*
X024601Y016494D01*
X024601Y018494D01*
X028101Y014494D02*
X029601Y012994D01*
X030601Y011494D02*
X030101Y010994D01*
X019101Y010994D01*
X019601Y010494D01*
X019601Y009994D01*
X019101Y010994D02*
X017101Y010994D01*
X017601Y010494D01*
X017601Y009994D01*
X016601Y009994D02*
X016601Y009494D01*
X017601Y008494D01*
X028101Y008494D01*
X029601Y006994D01*
X027101Y006994D02*
X026101Y006994D01*
X025601Y007494D01*
X022601Y007494D01*
X022101Y006994D02*
X021101Y007994D01*
X017101Y007994D01*
X016601Y007494D01*
X016601Y006994D01*
X017601Y006994D02*
X017601Y006494D01*
X019101Y004994D01*
X021601Y004994D01*
X022101Y004494D01*
X022101Y001994D01*
X022601Y001494D01*
X024601Y001494D01*
X023601Y001994D02*
X025601Y001994D01*
X026101Y001494D01*
X027101Y001494D01*
X027601Y002994D02*
X023601Y002994D01*
X023101Y003494D01*
X023101Y005494D01*
X022601Y005994D01*
X020101Y005994D01*
X019601Y006494D01*
X019601Y006994D01*
X018601Y006994D02*
X018601Y006494D01*
X019601Y005494D01*
X022101Y005494D01*
X022601Y004994D01*
X022601Y002994D01*
X023601Y001994D01*
X027601Y002994D02*
X029101Y001494D01*
X029601Y001494D01*
X024601Y006994D02*
X022101Y006994D01*
X018101Y003994D02*
X018101Y002994D01*
X018601Y002494D01*
X018601Y001494D01*
X017601Y001494D02*
X017601Y002494D01*
X017101Y002994D01*
X017101Y003994D01*
X015601Y009994D02*
X015601Y010494D01*
X016101Y010994D01*
X017101Y010994D01*
X018101Y012994D02*
X017601Y013494D01*
X017601Y014494D01*
X016601Y014494D02*
X016601Y014994D01*
X017601Y015994D01*
X018101Y012994D02*
X024601Y012994D01*
X009601Y018494D02*
X009601Y018994D01*
X009101Y019494D01*
X009101Y020494D01*
X008101Y020494D02*
X008101Y018494D01*
X007101Y019494D02*
X006601Y018994D01*
X006601Y018494D01*
X007101Y019494D02*
X007101Y020494D01*
X003101Y020494D02*
X003101Y018494D01*
D15*
X022601Y007494D03*
X018101Y003994D03*
X017101Y003994D03*
X012601Y002494D03*
X030601Y011494D03*
M02*
