G75*
G70*
%OFA0B0*%
%FSLAX24Y24*%
%IPPOS*%
%LPD*%
%AMOC8*
5,1,8,0,0,1.08239X$1,22.5*
%
%ADD10C,0.1340*%
%ADD11C,0.0680*%
%ADD12C,0.0600*%
%ADD13OC8,0.0600*%
%ADD14C,0.0476*%
D10*
X001101Y001494D03*
X001101Y020494D03*
X021851Y020494D03*
X021851Y001494D03*
D11*
X021401Y002994D02*
X020801Y002994D01*
X020801Y003994D02*
X021401Y003994D01*
X021401Y004994D02*
X020801Y004994D01*
X018901Y004994D02*
X018301Y004994D01*
X018301Y003994D02*
X018901Y003994D01*
X018901Y002994D02*
X018301Y002994D01*
X018601Y001794D02*
X018601Y001194D01*
X017601Y001194D02*
X017601Y001794D01*
X016601Y001794D02*
X016601Y001194D01*
X015601Y001194D02*
X015601Y001794D01*
X014601Y001794D02*
X014601Y001194D01*
X013601Y001194D02*
X013601Y001794D01*
X011601Y001794D02*
X011601Y001194D01*
X010601Y001194D02*
X010601Y001794D01*
X009601Y001794D02*
X009601Y001194D01*
X008601Y001194D02*
X008601Y001794D01*
X007601Y001794D02*
X007601Y001194D01*
X006601Y001194D02*
X006601Y001794D01*
X003851Y004944D02*
X003851Y005544D01*
X002851Y005544D02*
X002851Y004944D01*
X005301Y014994D02*
X005901Y014994D01*
X005901Y015994D02*
X005301Y015994D01*
X005101Y020194D02*
X005101Y020794D01*
X006101Y020794D02*
X006101Y020194D01*
X007101Y020194D02*
X007101Y020794D01*
X008101Y020794D02*
X008101Y020194D01*
X009101Y020194D02*
X009101Y020794D01*
X010101Y020794D02*
X010101Y020194D01*
X011601Y020194D02*
X011601Y020794D01*
X012601Y020794D02*
X012601Y020194D01*
X013601Y020194D02*
X013601Y020794D01*
X014601Y020794D02*
X014601Y020194D01*
X015601Y020194D02*
X015601Y020794D01*
X016601Y020794D02*
X016601Y020194D01*
X017601Y020194D02*
X017601Y020794D01*
X018601Y020794D02*
X018601Y020194D01*
X018301Y018494D02*
X018901Y018494D01*
X018901Y017494D02*
X018301Y017494D01*
X018301Y016494D02*
X018901Y016494D01*
X020801Y016494D02*
X021401Y016494D01*
X021401Y017494D02*
X020801Y017494D01*
X020801Y018494D02*
X021401Y018494D01*
X021401Y013994D02*
X020801Y013994D01*
X020801Y012994D02*
X021401Y012994D01*
X021401Y011994D02*
X020801Y011994D01*
X018901Y011994D02*
X018301Y011994D01*
X018301Y012994D02*
X018901Y012994D01*
X018901Y013994D02*
X018301Y013994D01*
X016401Y013994D02*
X015801Y013994D01*
X015801Y012994D02*
X016401Y012994D01*
X016401Y011994D02*
X015801Y011994D01*
X015801Y009494D02*
X016401Y009494D01*
X016401Y008494D02*
X015801Y008494D01*
X015801Y007494D02*
X016401Y007494D01*
X018301Y007494D02*
X018901Y007494D01*
X018901Y008494D02*
X018301Y008494D01*
X018301Y009494D02*
X018901Y009494D01*
X020801Y009494D02*
X021401Y009494D01*
X021401Y008494D02*
X020801Y008494D01*
X020801Y007494D02*
X021401Y007494D01*
X016401Y004994D02*
X015801Y004994D01*
X015801Y003994D02*
X016401Y003994D01*
X016401Y002994D02*
X015801Y002994D01*
X012651Y015744D02*
X012051Y015744D01*
X012051Y016744D02*
X012651Y016744D01*
X012651Y017744D02*
X012051Y017744D01*
X012051Y018744D02*
X012651Y018744D01*
X015801Y018494D02*
X016401Y018494D01*
X016401Y017494D02*
X015801Y017494D01*
X015801Y016494D02*
X016401Y016494D01*
X004101Y020194D02*
X004101Y020794D01*
X003101Y020794D02*
X003101Y020194D01*
D12*
X005601Y012754D02*
X005601Y012234D01*
X006601Y012234D02*
X006601Y012754D01*
X007601Y012754D02*
X007601Y012234D01*
X008601Y012234D02*
X008601Y012754D01*
X009601Y012754D02*
X009601Y012234D01*
X010601Y012234D02*
X010601Y012754D01*
X011601Y012754D02*
X011601Y012234D01*
X012601Y012234D02*
X012601Y012754D01*
X012601Y009754D02*
X012601Y009234D01*
X011601Y009234D02*
X011601Y009754D01*
X010601Y009754D02*
X010601Y009234D01*
X009601Y009234D02*
X009601Y009754D01*
X008601Y009754D02*
X008601Y009234D01*
X007601Y009234D02*
X007601Y009754D01*
X006601Y009754D02*
X006601Y009234D01*
X005601Y009234D02*
X005601Y009754D01*
X005601Y007254D02*
X005601Y006734D01*
X006601Y006734D02*
X006601Y007254D01*
X007601Y007254D02*
X007601Y006734D01*
X008601Y006734D02*
X008601Y007254D01*
X009601Y007254D02*
X009601Y006734D01*
X010601Y006734D02*
X010601Y007254D01*
X011601Y007254D02*
X011601Y006734D01*
X012601Y006734D02*
X012601Y007254D01*
X012601Y004254D02*
X012601Y003734D01*
X011601Y003734D02*
X011601Y004254D01*
X010601Y004254D02*
X010601Y003734D01*
X009601Y003734D02*
X009601Y004254D01*
X008601Y004254D02*
X008601Y003734D01*
X007601Y003734D02*
X007601Y004254D01*
X006601Y004254D02*
X006601Y003734D01*
X005601Y003734D02*
X005601Y004254D01*
D13*
X007101Y015994D03*
X008101Y015994D03*
X009101Y015994D03*
X009101Y018994D03*
X008101Y018994D03*
X007101Y018994D03*
X003601Y018994D03*
X002601Y018994D03*
X002601Y015994D03*
X003601Y015994D03*
D14*
X003851Y013494D03*
X002851Y013494D03*
X006351Y013744D03*
X007101Y013744D03*
X008101Y013744D03*
X011351Y011244D03*
X011351Y010744D03*
X011851Y008244D03*
X011851Y005744D03*
X014601Y003744D03*
X010601Y002494D03*
X009101Y002994D03*
X004851Y002494D03*
X013351Y013494D03*
X014851Y016994D03*
M02*
